<?xml version="1.0" encoding="UTF-8" standalone="yes"?>
<svg version="1.2" baseProfile="tiny-ps" viewBox="0 0 300 300" xmlns="http://www.w3.org/2000/svg">
  <title>bimi-svg-tiny-12-ps</title>
  <g>
    <g fill="#fdfdfc" transform="matrix(.1 0 0 -.1 0 300)">
      <path d="M0 1500V0h3000v3000H0V1500z"/>
    </g>
    <g fill="#e9e9e9" transform="matrix(.1 0 0 -.1 0 300)">
      <path d="M0 1500V0h500l1 368v367l7 17c10 24 95 113 115 121 9 3 17 11 17 16 0 15 123 131 143 135 6 2 29 11 51 20l38 17 20-18 20-17-4-236-3-236-17-18c-10-10-18-20-19-24 0-4-2-21-4-38l-5-32 25-16 24-16-2-205-2-205h1045v635l15 40 14 40 1-32v-33h30v120h-30v-27h-30v68l31 29 32 28 19-11 19-12 9 15 10 15v-25h50V749l-13-13-13-14-18 14-19 13-19-10-19-10 3-37 3-37 23-3 23-4 13 11 12 11 12-12 12-12V542l-20-5-20-5v-74l20-5 21-5-2-94-1-94-9-6c-5-3-9-11-9-17v-12l10 15 10 15V0h20v142c0 78 2 139 5 136 3-2 6-66 8-142l2-136 15 2 15 3-4 151-3 151 17 16 16 17h22c12 0 115-5 230-12l207-12V0h40v280h10c6 0 10 7 10 16v17l135-5 135-5v57l-137 1c-76 1-141 1-145 0l-8-1v650h10c6 0 10 6 10 14s4 17 8 20c7 4 231 36 254 36h8v30c0 17-2 30-4 30s-61-9-132-20-135-20-141-20h-13v641l23 23c12 13 33 26 47 29s52 12 85 21 77 21 98 27l37 10v76l-94-33c-51-18-117-39-145-48l-51-15v594l10-15 10-15v22c0 12 3 28 6 37l6 15 101 49c56 27 114 54 130 60l27 12v410H0V1500zm2188 948-3-13 63-3 62-3v-10c0-15-53-69-67-69-7 0-13-6-13-12v-13l-8 13-9 13-16-7c-9-3-17-11-17-16v-10l-34 3c-19 2-38 0-42-4s-12-7-17-7h-9l12 15 13 15-7 7-6 6v-23h-30l2 29 2 30 16-9 15-9 11 21 11 21 27 3 26 3 5-10c4-5 10-9 16-9 5 0-1 10-12 21l-21 21 13 9c18 11 19 11 17-3zm482-331-1-302-10 18-10 17h-20c-11 0-29-4-39-10l-18-9-6-26c-4-14-11-25-16-25h-10v70h-50v-9c0-6 5-13 10-16l10-6v-59h-14c-8 0-21-3-30-6l-16-6v82h15c8 0 15 5 15 10 0 6-7 10-15 10h-15v15c0 21-14 19-35-5l-19-20 12-12 12-12v-43c0-24-2-43-4-43s-13-3-23-7l-18-7 13 17 14 16-6 19-6 19-25 11c-14 6-25 16-25 22 0 16 17 12 24-7l7-16 11 11 11 11-6 15-6 16h-49l-12-15-12-14 6-19c4-10 17-25 31-32l24-13-6-10-6-10-14 18-13 19-11-11-12-12 6-15 6-16 28-1h28l-70-25-70-25-25 3-25 3 2 20c2 11 3 124 3 250v230l23 27 22 27 160 75c88 41 182 86 209 100s53 23 58 20l8-5v-302zm-550-140v-133l-65 3-65 4v-16c0-8 5-15 10-15h10v-69l-10-6c-5-3-10-11-10-16v-11l38 2c20 1 49 2 65 1l27-1v-50h-170v58l15 12 15 12v76l-15 12-15 12v115l63 56c57 52 98 86 105 87 1 0 2-60 2-133zm31 1 3-118-7-6-7-7v128c0 71 2 126 4 124s6-57 7-121zm483-163 5-15h-19c-20 0-26 11-13 23 10 11 20 8 27-8zm-556-32-3-38h-30l-3 38-3 37h42l-3-37zm39-15-4-23v40l-1 40 5-17c2-10 2-28 0-40zm30 0-4-23v40l-1 40 5-17c2-10 2-28 0-40zm523-360v-317l-32-6c-175-29-410-65-426-65h-20l-6 16c-3 9-6 46-6 84s3 75 6 84l6 16h468v20h-470v10c0 6 3 9 8 9 4-1 109-1 235 0l227 1v20h-480v179l98 3 97 3 3 102 3 102 68 21c37 11 75 20 84 20s18 4 21 8l5 8h55l56-1v-317zm-519 269-11-11v30l1 29 10-18 11-19-11-11zm-172-34-16-4-2-56c-2-80-11-80-11 0v67l23-1 22-1-16-5zm68 0-18-5 2-16c1-9 1-36 0-59l-1-43h-18l-4 45c-2 25 0 55 4 65l7 20 23-1 23-1-18-5zm40-80-5-18v70l5-17c2-10 2-26 0-35zm223-14v-48l-20-11-20-11-18 11-17 10 15-1c8-1 21-1 28 0l12 1v29l-15-5-15-6-15 12-15 12v47l16 9 16 9 24-5 24-4v-49zm-113-11-4-23v40l-1 40 5-17c2-10 2-28 0-40zm-77-168v-90h-170v180h170v-90zm39-17 1-73h-20l1 93v92l9-20c5-11 9-53 9-92zm-44-103 6-10h-172l6 10 6 10h148l6-10zm5-165V950h-19c-11 0-23-6-27-12l-8-13-6 25-6 25h-29l-3-23-4-23-13 11c-7 6-17 10-21 9-5-1-15-1-21 0l-13 1v270h170v-135zm39 48c0-43-4-96-8-118l-9-40-1 118-1 117h20l-1-77zm511-434V369l-239 2-240 1-4 12c-3 7-6 60-6 118l-1 105 14 28 14 27-5 14c-3 8-9 14-14 14h-9l3 140c2 77 5 142 8 145 7 6 462 62 472 58l7-4V699zm-683 189-5-13v50l5-12c2-7 2-19 0-25zm167 17 5-15h-9c-6 0-10 7-10 15s2 15 4 15 6-7 10-15zm1-115 1-50h-16v113l6-6c4-4 8-29 9-57zm-75-92 14-4-22-6-22-6v43l8-11c4-6 14-13 22-16zm79-155c0-60-4-130-8-158l-7-50v158l1 157h15l-1-107zm-42-60-5-18v60l5-12c2-7 2-21 0-30zm388 1418c-8-15 3-31 21-31h15l-3 17c-4 20-24 28-33 14zm-289-73c-9-12-16-32-16-43s7-31 16-43l15-22h19c48 0 68 27 23 32l-26 3-5 13-4 12h62v23c0 29-18 47-46 47h-23l-15-22zm43-19c-16-10-23-4-14 10l6 11 11-6 10-6-13-9zm-16-235-6-16 16-15 15-15 11 6 11 7v49h-41l-6-16zM1960 510v-60h30v120h-30v-60zm40-15v-45h29l4 33 4 32 1-32 2-33h30v90h-70v-45z"/>
    </g>
    <g fill="#d8d9d8" transform="matrix(.1 0 0 -.1 0 300)">
      <path d="M0 1500V0h500v2016l42-4 42-4 12-13c7-7 10-15 7-19-9-9 50-7 62 2 12 8 18 59 9 73l-5 9-27-17-27-18 12 16 13 16-7 6-6 7h23l-15 18c-8 9-21 26-28 36l-14 19-24 3c-13 1-35 3-47 3l-24 1 7 108 6 107 9 3c6 2 10 9 10 15s8 19 17 29l17 19-17-7-17-6v22h60v-19l28-3 27-3 3-28 3-27 10 5 9 6 1-23c0-13 0-57-1-99l-1-76 15-12 14-12 7 11c8 13 48 13 62-1l10-10 34 3 34 3-3 61-4 62 12 7 11 7-11 13-11 13 11 7c12 8 14 45 1 45h-9l3 31 2 31 17 19 16 19h-24l11 11 11 11-5 14-5 14h102v-9c0-5 15-13 33-16 17-4 38-12 44-17l13-10 26 6c14 4 34 4 44 1l18-6-6-21-5-21 31 6 32 6-1-7c-1-4-1-19 0-34l1-28h90v-15c0-8 11-25 25-37 22-19 55-71 55-86 0-2-6-2-13 1l-14 5 5-24c2-13 3-24 1-25-2 0-76-3-164-6s-163-8-166-11c-5-6-189-398-206-439l-5-13h407l70 151c39 83 78 157 87 166l17 15-5 12-5 13h16c8 0 15-4 15-8s5-20 11-36c7-15 12-37 13-48l1-20 15 3 15 3-12-12c-7-7-13-17-13-22v-8l11 7 12 7-5-14-5-14h-48l-2-66-2-67 29-4c37-6 40-3 40 38v33l10 6 10 6-6 11-7 11 12-7 12-8-11-13-11-14 6-33c3-18 8-50 12-70l6-38-13-15-12-15h-168v-149l8-5c4-2 50-5 102-7l95-3 7-10c15-21 9-25-67-42-5-1-40-2-77-3l-68-1v-159l93-4c50-1-76-4-281-5l-374-2 4-10 3-9 364-5c200-3 366-8 369-11s-162-5-366-5H750v-20l343-1c357-1 368-1 405-13l22-7v-125l12-12 13-13-12-7-11-7-1-89c-1-49-3-92-6-94-3-3-5 25-5 61v67h-30l-1-12c-1-7-1-22 0-33l2-20-15 18-14 19-24-4-23-3-6-30-6-30-4 29-4 29-12 5-13 4-1-39-2-38-6 35-6 35h-17c-9 0-26 9-37 19l-21 19-25-11-25-12v-79l15-13c8-7 21-19 30-26l16-14 16 6 16 7-11 11-10 10 5 15 5 14 14-20 14-20 23 1c12 1 27 5 34 10l11 9 6-9c3-5 19-9 35-10l30-1 4 22 4 22 2-22 1-23 18-1c9-1 26-2 37-2h20V745l-32-2-33-3v30h-28l-5-22-6-21-15 12-16 13-17-7c-10-5-28-7-40-6l-22 2-4-33-4-33-1 33-2 32h-70v30h-80v-15c0-8 5-15 10-15h10v-90h39l4 48 3 47 2-47 2-48h30v24c0 14 4 27 9 31l10 5 3-27 3-28h140l-1 33-2 32h8c5 0 10-15 12-32l3-33 40-5 40-5v-99l-24-6-24-5-7-20-7-19-5 22-6 22h-51l-7-11-7-11 14-9 14-9h-25v-50h70l1 23v22l9-23 9-22h51l1-17c0-10 0-47-1-83l-2-65-9-12-10-12 3-33 3-33-12-10c-7-5-15-26-18-45l-5-35 9 20 10 20-5-45c-3-25-7-57-9-72l-5-28h212l-6 23c-13 54-26 219-25 319l1 108h57l10 32 9 33 1-32 1-33h30l1 28c1 15 3 42 5 60l2 32h-38v-30h-81l2 49 3 50 9-6 10-6-6 16-6 16 29-6 30-5 15 12 16 13 11-11c7-7 20-12 30-12h19l9 23 9 22v-22l1-23h30v60h28l7-30 7-30h26l10 37 10 38 1-37 1-38h30v120h-30v-30h-29l-4-18-5-17-1 17-1 17-17 3c-10 2-28 2-40 0l-23-4v-30l-18 22-18 23-22-12c-12-6-22-17-22-23v-12l-12 12-13 13 12 7 12 8-8 13-9 14h-54l-9-14-9-14v50c0 28-3 60-6 72l-6 23h22v-40h40v50h38l5 13 5 12 1-32 1-32 20-6 21-7 14 12 13 11 21-13 21-13 20 13 20 12v-40h10c10 0 26 11 53 36l12 11 12-16 12-16 8 10 9 10-4 58-4 58-11-4c-6-2-14-14-17-28l-6-24-7 11-7 12h-25c-14 0-28-4-31-9l-5-9-19 13-20 12-21-13-21-13-14 12-14 11-21-5-20-5-5 12-5 13-40 13-40 14 15 8c17 10 22 38 7 38-5 0-12-8-14-17l-5-18-1 28c0 15 2 27 7 27h7l-4 51-3 51 11-6 11-7v21h-40v10c0 32 103 38 618 39l352 1v20l-452 2-453 1 105 7c58 4 261 8 453 9l347 1v20l-457 2c-252 1-412 4-355 5l102 4v176h118c64-1 159 0 210 1l92 2v200l-227 1c-126 1-239 1-253 0s-31 3-39 8l-14 9 6 16 6 16h20c11 0 23-4 26-10 11-18 35-11 60 18l24 27 1 33v32l-22 20-23 19 6 236 6 236 19 14c11 8 30 20 44 27s86 47 160 89 249 138 389 213l254 138 29-4 28-5v14l40-7c50-9 50-9 57-58l5-39-103-60c-57-33-169-94-249-135s-163-86-185-100-50-28-62-32c-11-4-26-13-33-20l-11-14 58 26c32 15 173 84 313 153 140 70 265 129 278 133l22 7v329H0V1500zm1384 705 5-15h-28l5 15c4 8 7 15 9 15s5-7 9-15zm-759-124 5-10-10-6-10-6v15c0 18 6 21 15 7zm-275-63v-43l-9 14-9 13-5-13-5-14-1 17c-1 9 4 20 10 24l11 6-5 19-5 19h18v-42zm-75 15c-11-3-26-10-32-15l-13-10v9c0 16 12 23 39 22l26-1-20-5zm15-33v-10h-51l6 10c3 6 15 10 26 10h19v-10zm1630-67-12-18 6 18c3 10 6 24 7 30l1 12 4-12c3-7 0-20-6-30zm9-52-4-10-14 8-14 9 8 12 7 12 10-10c6-6 9-15 7-21zm1-91v-20h-19l2 20c1 11 5 20 9 20s8-9 8-20zm17-27-5-18v70l5-17c2-10 2-26 0-35zm-1509-28c-3-3-9 2-12 12l-7 18 12-12c7-7 10-15 7-18zm1385-24 5 14 1-17c1-10-3-18-8-18s-17-3-26-7l-17-6 12 23 12 23 8-13 8-12 5 13zm154-68-18-5 2-16c1-9 1-36 0-59l-1-43h-18l-4 45c-2 25 0 55 4 65l7 20 23-1 23-1-18-5zm70 0-18-5 2-21c1-12 1-39 1-59l-2-38h-18l-4 43-5 42 8 23 9 22 22-1 23-1-18-5zm53-7c0-3-4-8-10-11l-10-6v10c0 6 5 11 10 11 6 0 10-2 10-4zm0-71v-45h-20v90h20v-45zm99-9-2-41-6 35-6 35h-40l-6-35-6-35-2 42-1 42 23 3c12 2 28 2 35 0l12-4-1-42zm111-1v-53l-15-12-15-12-27 8-28 8 33 4 32 3v30l-10-6c-6-3-19-3-30 0l-20 6v28c0 15 5 32 11 38l12 12 28-1 29-1v-52zm-410-6v-30l-9 5-8 6 5 25c6 34 12 32 12-6zm-381-159c1-15 6-31 12-37l12-12-7-16-6-16-11 6-11 7 5 19 5 19h-18l1 48v47l9-20c5-11 9-31 9-45zm283-9-3-60 33-4 33-4-37-1-38-2v58c0 48 5 72 14 72 1 0 0-27-2-59zm84-10 4-40-9-5-9-6 5 20 5 20-23 9-24 9 18 7 17 7v31l6-6c4-4 8-24 10-46zm-616-457v-35l-10 6c-17 10-11 65 7 65 2 0 3-16 3-36zm720-14v-20h-20v40h20v-20zm-493-212-5-13v50l5-12c2-7 2-19 0-25zm207 17 5-15h-9c-6 0-10 7-10 15s2 15 4 15 6-7 10-15zm-154-210c0-2-7-5-15-9l-15-5v28l15-5c8-4 15-7 15-9zm694 1080c-8-20 4-35 27-35h19v50h-41l-5-15zm726 1071c-8-8-103-58-210-112-225-112-303-155-297-161 3-2 48 16 101 41 54 26 99 46 102 46 2 0 4-18 4-39v-40l11-6c16-10 20-2 26 58l6 55 143 69 144 68v18c0 21-11 22-30 3zm-1955-186c-8-13 8-18 29-10l20 7-22 5-22 6-5-8zm1666-142-1-28h10c12 0 12 8 0 35l-9 20v-27zm-561-57c0-5 5-13 10-16l10-6v10c0 5-4 13-10 16l-10 6v-10zm42-41v-25l5 13c2 6 2 18 0 25l-5 12v-25zm520 0v-25l5 13c2 6 2 18 0 25l-5 12v-25zm-1343-311-11-6 4-24 3-24 28-3 27-3v67h-20c-12 0-25-3-31-7zm1586-15c-33-12-56-23-52-23 4-1 2-7-5-15l-13-14-9 9c-6 5-15 9-20 9h-11l15-10 15-10h-14c-8 0-12-3-8-6 3-3 44 4 91 16l86 23v24c0 27 2 27-75-3zm-418 0c-9-10 2-24 19-24h14v30h-13c-8 0-17-3-20-6zm-91-36-19-22 11-4 12-4v-99l16-6 17-6 18 12 19 11v-20h59l7 12 8 12-12 4-12 4v98h-50v-9c0-6 5-13 10-16l10-6v-69h-60v80h15c8 0 15 5 15 10 0 6-5 10-11 10-7 0-17 7-23 15l-11 16-19-23zm-421-18c-3-5-1-11 5-15l10-6v-77l-12-5c-7-3 14-6 47-7s76-4 95-6 41-2 49 1l13 5-10 13c-6 7-12 33-14 57l-3 45-23 3-23 4-15-12-14-12v21l-50-1h-50l-5-8zm83-59 3-43-18 4-18 3-3 28c-2 16-1 35 2 44l6 15 13-4 12-5 3-42zm70 2-3-38h-30l-3 38-3 37h42l-3-37zm81 57c-9-5-20-21-23-34l-6-25 9-24 10-25 20-7 21-6 20 6c28 9 25 23-7 27l-26 3-5 13-4 12h53l6 16 6 17-10 16c-12 19-42 24-64 11zm41-25v-15h-39l5 15c4 8 12 15 20 15h14v-15zm49 13-12-22 33-28 34-28-7-6-7-7-20 18-20 18-6-18-7-17 14-9c21-13 46-11 63 7 22 22 20 29-16 58l-32 25 7 7 7 8 14-20 15-19 6 17 7 17-7 11c-3 5-17 10-30 10h-24l-12-22zm269 5c-9-10-19-28-22-40l-7-22 10-20c6-11 20-23 31-26l20-6 20 6c11 3 20 11 20 16v9h-48l-6 16c-3 9-6 27-6 40v24h13c7 0 18-5 24-11l11-11 6 11 7 11-6 10c-3 6-16 10-29 10h-23l-15-17zm-1258-23v-30h60v60h-60v-30zm-800 10-15-10h12c6 0 15 5 18 10 8 12 4 12-15 0zm14-35c-3-8-3-19 1-25l6-10h-41v-69l18 6c9 3 25 12 35 19l18 12-10 7c-6 3-11 11-11 16v10l9-5 9-6 12 15 12 15-6 15-5 15h-42l-5-15zm2132-33-5-9h28l-5 9c-3 4-7 8-9 8s-6-4-9-8zM800 1480v-190h410v380H800v-190zm420 0v-190h30v380h-30v-190zm1747-364c-7-16 1-26 20-26h13v40h-14c-8 0-16-6-19-14zm-891-182c-9-8-16-24-16-34 0-19 25-50 40-50s40 31 40 50-25 50-40 50c-5 0-16-7-24-16zm70-53c-4-5-2-20 2-32l9-23 12 22 12 22-6 10c-8 12-22 13-29 1zm-36-146-13-15-13 11-13 11-23-4-23-3-3-37-3-36 21-7 21-7 18 17 19 16 5-16 6-15h19c10 0 24 6 30 12l13 13 5-23 6-22 9 6c5 3 9 14 9 25v19h-39l6 15 5 16-17 19c-22 24-29 25-45 5zm-34-28 14 5v-10c0-5-9-12-20-15l-20-5 1 21 1 22 4-12 5-12 15 6zm-826-197v-60h30v35l25 11 24 12 3-27 3-26h60v80h-60l-13 18-13 17h-59v-60zm590 0v-60h19l4 28 4 27 2-28 1-28 17 3 17 3 7 25 7 25 1-27 1-28h30v120h-49l-4-22-4-23-8 23-7 22h-38v-60zm120 0v-60h30v120h-30v-60zm160 46v-14l-21-5-20-5 3-39 3-38 33-3 32-3v121h-30v-14zm-3-73-5-18v60l5-12c2-7 2-21 0-30zm-117 13v-46h29l4 38 4 37 1-37 2-38h31l-3 43-3 42-32 3-33 3v-45zm-479-73c6-7 17-13 23-12l11 1-13 5c-6 2-10 8-8 12 3 4-1 8-9 8h-15l11-14z"/>
    </g>
    <g fill="#bfc2c6" transform="matrix(.1 0 0 -.1 0 300)">
      <path d="M0 1500V0h500v2025l51-4 50-3-3 48-3 49h-95v385h160v59c0 33 3 66 6 75l6 16H500v43c0 23 3 52 6 65l7 23 66-3 66-3 14-13 14-13 5-45 5-44h56c31 0 66-3 78-6l22-6 3-42 3-41 25-2c14-1 35 0 48 3l22 4v50h51l-3 23-3 22-76-1-77-1 6 41 5 41 11 7 11 8 15-6c20-8 48-15 84-21l29-6-6 17c-4 10-7 25-8 34v17l-9-20-9-20v21l-1 21h28c15 0 62 1 104 3l78 2 11 15 12 14-14-3-14-3 1 13c1 6 2 29 4 50l2 37 8-30 8-30 1 21 1 22 16 6 15 6 21-11 21-11 7 12 8 13 30-6 29-6 9 9 9 9 235 2 235 3 13-7c6-5 12-17 12-28v-20l19 6 19 6-5-21c-3-11-9-23-14-26s-9-11-9-18v-14l20-5 20-5-14-34c-8-18-26-44-40-58-53-54-96-135-54-103 19 14 152 64 180 67 58 7 108 19 108 26 0 11 60 31 71 24 5-3 15-2 22 3 15 10 27 11 109 17 37 2 71 7 75 9 4 3 80 5 168 4l160-1 90 46c50 25 119 62 155 80l65 34 3 42 3 42H0V1500zm186 1106 6-34-7-32-7-31-61 3-62 3-3 49c-2 27-1 55 2 62l5 14h120l7-34zm164-31v-65H220v130h130v-65zm120-121v-35l-32 3-33 3-3 18c-2 10-1 25 2 33l5 14h61v-36zm-280-9v-35h-60v70h60v-35zm50-81v-15l-10 6-10 6 5 10c9 14 15 11 15-7zm140 6c0-5-2-10-4-10-3 0-8 5-11 10l-6 10h10c6 0 11-4 11-10zm-30-345v-65H220v130h130v-65zm100-275v-30h-60v60h60v-30zm-70-70c0-5-7-10-15-10s-15 5-15 10c0 6 7 10 15 10s15-4 15-10zm100-175c0-8-4-15-10-15-5 0-10 7-10 15s5 15 10 15c6 0 10-7 10-15zm705 1345-6-10 15 6c18 7 21 14 7 14-6 0-13-4-16-10zm1790-151c-4-6-5-13-2-16 7-7 27 6 27 18s-17 12-25-2zm-1237-114c-2-3-18-6-36-8-17-2-38-9-46-16l-15-12-53-4c-29-2-56-4-60-4-14-2-8-21 6-21h14l19-37c11-21 22-51 26-68l5-30-12-17-13-18-32-6-32-7-14-21-15-20v-65l23-18c12-10 28-30 34-45l13-28h25l10-22 10-23 18-3 19-4 19 21c10 11 19 24 19 29 0 6 11 17 25 26l25 16v15c0 7 9 20 20 28 10 7 24 25 29 40l10 27-6 17c-3 10-13 26-21 36l-15 17h-54l-18 34-19 35 11 23c6 13 12 28 13 33 1 6 11 16 21 23 11 7 19 18 19 23 0 6 10 19 23 29 12 10 19 21 16 24s-8 4-11 1zM680 2330v-160h150v320H680v-160zm270-307c-40-87-88-191-106-230l-33-73h400l51 108c27 59 69 147 92 196l42 89 90-194 91-194 63-8 62-8 54 16 53 15 31 38 31 37-1-15c-6-46 15-80 51-80h19l20 20 20 20v59l-16 15-15 16h-48l-17-17-18-18 6 17c4 9 10 32 13 51l7 34-12 44c-7 24-21 57-33 73l-20 28-41 19-41 19h-33c-40 0-99-24-129-52l-23-21v-37h20l-1-47-1-48-70 143-70 142h-415l-73-157zm808 0 24-15 20-45 20-46-4-54-5-54-24-24-24-23-31-6-31-7-24 20-24 19-2 104-2 103-27 5-27 5 14 12c9 7 26 17 40 22l24 10 30-6c17-3 41-12 53-20zm180-205 12-12v-55l-10-6-11-7-14 12-15 12v28c0 39 15 51 38 28zM620 2005v-25h40v50h-40v-25zm714-110c-8-21 4-35 32-35h24v50h-51l-5-15zm76-10v-25h50v50h-50v-25zm1097 9c-9-10 2-24 19-24h14v30h-13c-8 0-17-3-20-6zm-92-44-18-20h23v-101l14-5 14-6 20 11 19 10 10-10 10-10 27 7 27 7-10 10-11 11v87l-16 6-15 6-12-12-11-11h24v-38c0-46-3-51-35-45l-24 5-3 17c-2 9-2 26 0 39l4 22h14c8 0 14 5 14 10 0 6-7 10-15 10s-15 5-15 10c0 16-15 12-35-10zm-415-10-12-7 11-7 11-7v-77l-12-5-13-5 40-1 40-1-13 9-13 8 3 39 3 39h30v-95h129l-12 12-12 12v87l-16 6-15 6-24-11-24-11-5 8c-7 10-80 11-96 1zm150-61v-39h-40v78l13 5c21 7 27-3 27-44zm84 63c-6-4-16-17-23-29l-11-23 6-25 6-26 20-10 20-11 24 6 24 6v22l-20-5-20-5-15 15-15 15 5 9c4 5 19 9 36 9h29v18c0 34-38 53-66 34zm36-27v-15h-39l5 15c4 8 12 15 20 15h14v-15zm50 15-11-21 30-28c34-32 38-41 17-41h-14l-6 17-7 16-11-11-12-12 16-16 16-17 26 7 26 6v48l-27 20-28 20 7 8 8 7 15-13c18-15 30-7 22 15l-6 15h-50l-11-20zm268 3c-8-10-18-28-21-41l-5-23 22-26 23-26 26 7 27 6v22l-16-6-17-6-13 11-14 11v68h13c7 0 18-5 24-11l11-11 6 11 7 11-6 10c-3 6-16 10-29 10h-23l-15-17zm-1248-24v-30l23 3 22 3 3 28 3 27h-51v-31zm70 1v-30h50v60h-50v-30zm-853-16c-4-4-7-16-7-26v-18h41l-3 22c-3 22-19 33-31 22zm-45-71 3-18 23-3 22-3v41h-51l3-17zm288-243v-190h410v380H800v-190zm431 1c-1-107 1-192 4-189 9 8 12 319 4 353l-7 30-1-194zm89 114v-75h180v150h-180v-75zm250-115v-190h381l-3 90-3 90h425v200h-800v-190zm150 159v-11l-15 6c-18 6-45-2-45-15 0-5 16-15 35-23l35-15v-40l-20-11-20-10-25 6c-35 9-31 19 7 19h31l4 12 4 12-35 15-36 15v13c0 8 5 19 12 26l12 12h56v-11zm257 4-18-5 2-21c1-12 1-39 1-59l-2-38h-18l-4 43-5 42 8 23 9 22 22-1 23-1-18-5zm73-3c-8-5-15-17-16-27s-2-35-3-55l-1-38h-20v66l-12 12-12 12h11c6 0 13 9 16 20l5 20h47l-15-10zm50-4c0-3-4-8-10-11l-10-6v10c0 6 5 11 10 11 6 0 10-2 10-4zm-307-19c3-7 3-25 0-40l-5-27 12-15 12-15h-8c-26 1-49 62-37 98 6 16 20 15 26-1zm91-13 16-6v-76l-32 1-33 2-3 19-4 19 14 8c22 15 33 10 12-6l-19-15 15-9c19-13 30-5 30 25v24h-45l15 10c18 12 15 11 34 4zm216-39v-45h-20v90h20v-45zm93 36c4 0 7-19 7-41v-40h-20v70h-30v-70h-20v89l28-3c15-2 30-4 35-5zm117-46v-53l-15-12-15-12-27 8-28 8 33 4 32 3v25l-27-1h-28l-3 28-3 28 11 14 11 14 30-1 29-1v-52zm-648-167 3-53h60l3 53 3 52h19v-99l-16-15-15-16h-21c-12 0-30 7-40 17l-18 16v97h19l3-52zm218 37 12-15-6-15-6-16 12-19 12-18-13-16-13-16h-88v130h78l12-15zm364 151c-8-21 3-36 27-36h20l-3 22-3 23-18 3-17 3-6-15zm-434-171v-15h60v30h-60v-15zm0-60v-25h23c12 0 28 4 36 9l14 9-6 16-6 16h-61v-25zm-490 25v-80h180v160h-180v-80zm-570-100v-10h1910v20H750v-10zm0-40v-10h1911l-6 10-6 10H750v-10zm486-266-16-15v-32c0-38 6-47 42-70 35-22 38-22 37 6 0 12 3 34 7 49l6 28-16 25-16 25h-15c-7 0-21-7-29-16zm34-50v-35l-10 6-10 6v59h20v-36zm210 1v-67l13 5 12 4v116l-12 5-13 4v-67zm40-1v-66l13 4 12 5 6 34 6 34 2-26 1-25 25-22c14-12 32-22 40-22h14l17 56 16 55-7 7-7 7-14-19-14-20v34h-40v10c0 6-6 10-14 10h-15l-4-17-5-18-1 23-1 22h-30v-66zm95-25c4-17 4-33 1-36-3-4-6 1-6 10 0 10-4 17-10 17h-10v40h9c5 0 12-14 16-31zm90 78c-4-8-5-36-3-63l3-49h30l3 23 3 22h14c8 0 19 9 25 19l10 20-6 15c-3 9-11 16-18 16-6 0-21 3-33 6l-23 6-5-15zm42-39-5-13-1 19c-1 11 2 17 5 13 3-3 4-12 1-19zm283-13v-55h20v110h-20v-55zm-708-12 3-48 25-1c14-1 30 2 37 8l11 9 6-10 6-10 28 3 27 3 3 35 3 35-15 12-15 13-21-7-22-7 5-19 5-19-8-5-9-5-3 27-3 26-12 5-13 4v-72h-20v70h-21l3-47zm480 35-12-12v-54l15-12 15-12 23 14 22 15 13-13c17-18 27-18 46 2l16 15v-51h30v30h38l6 16c10 25 7 41-8 57l-15 14-25-4-26-5v-12l-1-11-10 18c-12 21-33 22-52 2l-15-14-12 14c-15 18-32 19-48 3zm108-38v-20h-20v40h20v-20zm80 0v-20h-20v40h20v-20zm93 42c-6-4-14-19-18-33l-6-26 16-17c19-18 24-19 43-7l13 8 1 32 1 33-14 9c-17 11-21 11-36 1zm67-83v-30l10 6c6 3 10 17 10 31v24h-20v-31zm-970-97c0-4 4-12 9-17 5-6 11-28 13-49l3-39 13-5 12-4v90l15 6c8 3 15 10 15 16v10h-80v-8zm277-10c-2-11-1-36 2-58l6-39 16-3 17-3-3 48c-2 26-4 54-4 61l-1 12h-28l-5-18zm173 2v-15l-9 6-9 5-18-17-17-18-5 13-4 12h-48l-11-24-11-23 11-22 12-21h17c10 0 23 5 30 12l11 11 15-12 15-13 23 4 23 3 3 58 3 57h-31v-16zm0-60c0-8-4-14-10-14h-10v41l10-6c6-3 10-13 10-21zm-80-14c0-5-2-10-4-10-3 0-8 5-11 10l-6 10h10c6 0 11-4 11-10zm157 83c-4-3-7-17-7-30v-23l25-10c35-13 31-23-5-15l-30 7v-9c0-16 24-33 47-33h22l9 16 9 15 12-15 13-16h39l9 23 9 22v-22l1-23h30v58l14 5 14 6 6-35 7-34h27l10 38 10 37 1-37 1-38h31l-2 60-2 60h-27v-30h-29l-4-17-5-18-1 18-1 17h-80l-1-22v-23l-9 23-9 22h-50l-6-20-6-20-15 15c-9 8-20 15-25 15s-9 5-9 11v11l14-11 14-12 7 11c3 5 3 15 0 20-7 11-48 14-58 3zm123-77c0-3-4-8-10-11l-10-6v10c0 6 5 11 10 11 6 0 10-2 10-4zm-578 12 3-41 13-5 12-4v62h9c5 0 11-13 14-30l6-30 62 3 62 2 11 19 11 19-11 4-12 4 5 19 5 19-46-1-46-1v-23c0-12-4-26-10-29l-10-6v61h-81l3-42zm168-22c0-2-9-2-20 1s-20 9-20 15v9l20-11c11-6 20-12 20-14zm604 50c-3-8-4-25-2-37l3-22 17-11 17-10 19 17 20 18 5-16 6-15h41l10 26 10 25-10 20-11 19h-39l-11-24-11-24-19-5-19-5v36l20-5 20-5-6 16-6 16h-49l-5-14zm116-46c0-5-2-10-4-10-3 0-8 5-11 10l-6 10h10c6 0 11-4 11-10zm40-26v-25l10 6c6 3 10 15 10 26v19h-20v-26zm-930-143v-61h30v35l24 11 24 11 6-29 6-29 27 3 26 3 5 14 5 14-22-6-21-5v9c0 5 9 9 20 9h20v41l-16 6-17 6-16-10-16-10-10 21-10 21-33 3-32 3v-60zm50 19c0-5-4-10-10-10-5 0-10 5-10 10 0 6 5 10 10 10 6 0 10-4 10-10zm458 23c-2-10-2-37 0-60l4-43h28l1 33c1 17 3 44 5 60l3 27h-37l-4-17zm82-43v-60h20l1 33 1 32 7-30 6-30h30l6 30 7 30 1-32 1-33h30v121l-22-3-22-3-7-25-6-25-8 28-7 27h-38v-60zm120 0v-60h30v120h-30v-60zm160 45v-15h-30l-6-24c-3-14-4-33-2-43l3-18 33-3 32-3v121h-30v-15zm-3-72-5-18v60l5-12c2-7 2-21 0-30zm-700 43-6-16h23l-12-12c-7-7-12-20-12-30v-18h71l-3 43-3 42-26 3-26 3-6-15zm77 0c-3-8-4-27-2-43l3-28 23-3 23-4 14 12 13 11 7-11c7-11 55-14 56-2 0 4 2 16 4 26 2 11-1 28-6 38l-10 18h-17c-10 0-24-6-31-12l-13-13-5 13-5 12h-49l-5-14zm54-27 17-1-15-5c-8-3-18-11-22-17l-8-11 1 30 1 30 5-12c2-7 12-13 21-14zm62-19c0-5-4-10-10-10-5 0-10 5-10 10 0 6 5 10 10 10 6 0 10-4 10-10zm72 48c-13-13-15-37-6-62l6-16h48l11 24 11 23-11 22-12 21h-17c-10 0-23-5-30-12zm25-50-5-13v50l5-12c2-7 2-19 0-25zm293 18v-46h29l4 38 4 37 1-37 2-38h31l-3 43-3 42-32 3-33 3v-45z"/>
    </g>
    <g fill="#5280ba" transform="matrix(.1 0 0 -.1 0 300)">
      <path d="M0 2975v-25h20v-69l-10-6-10-6V0h487l6 578c4 317 7 992 7 1500v922H0v-25zm350-85v-70H210v140h140v-70zm120-125c0-8-4-15-9-15-13 0-22 16-14 24 11 11 23 6 23-9zm-280-190v-75H50v150h140v-75zm160 0v-76l-67 3-68 3-3 59c-2 32-1 65 2 72l5 14h131v-75zm120-120v-35h-70v70h70v-35zm-270-10v-35h-80v70h80v-35zm190-70v-15h-30v30h30v-15zm-150-10v-15h-30v30h30v-15zm110-340v-76l-67 3-68 3-3 73-3 72h141v-75zm105-275v-35h-70l-3 38-3 38 38-3 38-3v-35zm-75-75v-15h-30v30h30v-15zm100-170v-15h-30v30h30v-15zm238 1488c23-2 59-2 80 0l37 4H675l43-4zm160 0c23-2 59-2 80 0l37 4H835l43-4zm282-3v-10h90v20h-90v-10zm-650-84v-73l65-7c36-4 70-4 75-1l10 6v149H510v-74zm337 67c-4-3-7-37-7-75v-68h150v150h-68c-38 0-72-3-75-7zm163-67v-74l66-4c36-1 70 0 76 3l9 6-3 69-3 69-72 3-73 3v-75zm-330-171v-75h150v150H680v-75zm167-82c-4-3-7-24-7-45v-38h90v90h-38c-21 0-42-3-45-7zm103-13v-20h30v40h-30v-20zm-440-65v-75h150v150H510v-75zm170-160v-75h151l-3 73-3 72-72 3-73 3v-76zm917-45-26-30h-50l-20-26-21-27v-48l25-23c14-13 25-28 25-33s14-22 30-36c17-15 30-32 30-37v-10h47l16 18c10 10 17 24 17 30v12h30l13 28c6 15 22 35 34 45l23 18v69l-20 20-20 20h-55l-13 20c-17 28-36 25-65-10zm-915-122 3-73h140l3 73 3 72H679l3-72zm341-80c-15-25-203-430-203-439v-9h387l89 188c49 103 93 189 99 190l9 4 89-191 90-191h164l43 23 44 23 23 44 23 43v111l-20 40-20 41-32 22c-18 12-50 25-71 28l-38 7-43-16-43-16-27-29-28-29 7-11 6-12 31 26c36 30 67 39 111 31l33-6 27-28c34-35 47-72 47-132v-49l-12-26-12-26-27-15c-16-8-39-14-54-14h-25l-20 20-20 20v200h-60l-1-62-1-63-76 155-77 155-202 3-202 2-8-12zm-513-104v-45l43 3 42 3 3 43 3 42h-91v-46zm110-59v-15h40v30h-40v-15zm720-120v-25h40v50h-40v-25zm70 0v-26l23 3 22 3v40l-22 3-23 3v-26zm1100-1v-16l12 4c6 2 14 10 16 16l4 12h-32v-16zm-95-34-18-20h23v-86l11-11 11-11 19 5c25 7 24 19-1 26l-20 5v72l23 1 22 1-15 5c-8 3-20 11-26 19l-11 14-18-20zm-528-18-17-19v-63l25-16 26-17 24 11 24 11 7 27 7 28-14 25-15 26-25 3-25 3-17-19zm63-28 10-25-11-20-10-20-17 3-16 3-6 25c-4 14-4 33-2 43l4 17h38l10-26zm75 36c-22-4-34-8-27-9l12-1v-88l-12-5-13-5 30-1 30-1-3 45-4 45 17 6 17 7 9-14c13-20 11-63-3-77l-12-12h69l-13 9-13 8 3 39 3 39h30v-95h40l-3 50-4 49-15 12-15 13-20-13-20-13-11 11c-12 12-12 12-72 1zm207-6-22-15v-68l21-14 20-15 20 5c11 3 21 9 24 13l5 8-21-5-22-6-13 18c-8 11-14 22-14 27v8h70v14c0 15-26 46-38 46-4 0-18-7-30-16zm38-19v-15h-20c-20 0-26 11-13 23 3 4 12 7 20 7h13v-15zm62 23c-7-7-12-19-12-27v-15l28-22 27-22-8-8-8-8-19 12-19 12-6-10-6-9 21-11 20-11 20 11 20 11v39l-25 12-25 11v19c0 22 16 24 24 3 3-8 10-15 16-15 16 0 12 27-6 34-22 8-28 8-42-6zm173 1-20-8h13l12-1v-88l-12-5-13-5 40-1 40-1-14 9-13 8-3 47c-3 55-4 56-30 45zm85-9-20-20v-60l23-14 22-15 23 6c12 3 22 9 22 13v8l-19-5-19-5-17 26-17 25 7 21 6 20h14c8 0 17-5 20-10l6-10 10 6 10 6-12 14c-16 19-35 18-59-6zm-1250-15v-25h40v50h-40v-25zm70 1v-26h51l-3 23-3 22-22 3-23 3v-25zm-858-43 3-18h30l3 18 3 17h-42l3-17zm-32-53v-21l18 3 17 3v30l-17 3-18 3v-21zm280-240v-190h410v380H800v-190zm434 0v-195l3 98c2 53 2 141 0 195l-3 97v-195zm86 115v-75h180v150h-180v-75zm254-115v-195l3 98c2 53 2 141 0 195l-3 97v-195zm16 90v-100h780v200h-780v-100zm395 81 5-10-14-8c-8-4-14-15-14-23 1-8 0-32 0-52l-2-38h-20v68l-11 4-12 4 14 24c21 38 42 50 54 31zm70 0 5-10-17-10-18-11 15-11 15-11-12-5-13-5v-68h-20v68l-11 4-12 4 14 24c21 38 42 50 54 31zm-335-15c-3-6-14-10-25-10-11-1-21-5-23-11l-3-10 22-5c12-3 27-13 33-23l11-17-11-17-11-18h-66l-4 12-4 11 33-1 33-2v29l-32 8-33 9v23c0 31 9 37 50 34l35-3-5-9zm72-13c0-10 0-31-1-47l-3-29 13-8 13-8-6-7-7-6-16 5-15 6v59l-12 6-13 6 13 6c6 3 12 12 12 20 0 20 20 17 22-3zm308 7c0-5-4-10-9-10-6 0-13 5-16 10l-6 10h15c9 0 16-4 16-10zm-200-39c5-11 10-32 10-46v-26l-37 3-38 3v49l25 7 25 7-30 1-30 1 15 10c8 5 23 10 32 10h17l11-19zm200-26v-45h-30v90h30v-45zm100 26c5-11 10-31 10-45v-26h-29l-3 32-3 31-12 5-13 4v-72h-30v90h69l11-19zm118-10c2-13 1-39-3-57l-6-34-24-6-25-6-17 8-18 8 25 4c14 2 29 8 35 13l9 9h-54l-11 24-11 23 12 22 11 22 37-3 37-3 3-24zm-468-31c0-5 7-10 15-10s15 5 15 10c0 6-7 10-15 10s-15-4-15-10zm407 34c-4-4-7-16-7-26v-19l18 3 17 3v19c0 20-16 31-28 20zm-660-130c-4-4-7-43-7-86v-78l178 2 177 3v160l-171 3-170 2-7-6zm65-60 3-47 17-10 16-11 16 13 16 13v88h20v-106l-12-12-12-12h-62l-12 12-12 12v106h19l3-46zm231-7 8-49-12-14-11-14h-98v131l52-3 53-3 8-48zm-83 18v-16l25 3 26 3v20l-26 3-25 3v-16zm0-60v-16l33 3 32 3v20l-32 3-33 3v-16zm-490 25v-80h180v160h-180v-80zm-565-100-6-10h1901v20H761l-6-10zm5-40v-10h1890v20H760v-10zm471-279c-6-11-11-29-11-41v-21l26-24c15-14 32-25 39-25h11v63l-1 62-27 3-27 3-10-20zm44-36v-28l-12-4-13-5v74l13-4 12-5v-28zm205 0v-55h30v110h-30v-55zm40 45c0-5 7-10 15-10s15 5 15 10c0 6-7 10-15 10s-15-4-15-10zm40-5v-15h-40v-80h30l1 38c1 38 3 37 13-10l6-28h44l-12 12c-14 14-16 48-3 48 11 0 21-25 21-51v-19h-10c-5 0-10-5-10-11v-10l18 3 17 3 16 50c18 55 15 71-7 41l-14-20v34h-40v30h-30v-15zm150-39v-56h20v39l23 3 22 3v60l-32 3-33 3v-55zm42 19c0-5-5-11-11-13l-11-4v34l11-4c6-2 11-8 11-13zm278-20v-55h20v110h-20v-55zm-617 19-18-15 23 4 22 5v-8c0-4-9-10-20-13l-20-5v-42h60v78l-14 5-14 6-19-15zm27-44c0-5-5-10-11-10h-10l6 10c3 6 8 10 11 10 2 0 4-4 4-10zm365 46-17-12 4-29 3-30 26-3 26-3 6 27c6 33 0 51-18 58l-13 5-17-13zm25-16c0-5-5-10-11-10h-10l6 10c3 6 8 10 11 10 2 0 4-4 4-10zm10-34c0-3-4-7-9-11l-10-5-6 10-6 10h15c9 0 16-2 16-4zm-520 14v-40h60v80h-20v-60h-20v60h-20v-40zm554 26c-3-8-4-25-2-38l3-23h50v70l-23 3-22 3-6-15zm36-26v-20h-20v40h20v-20zm40-15v-55h10c6 0 10 7 10 15v15h29l10 18 10 19-6 21-5 22h-58v-55zm40 20v-25h-20v18c0 17 8 32 17 32 2 0 3-11 3-25zm84 21c-3-8-4-25-2-38l3-23 19-3 18-4 11 11 11 11-8 7-7 7-8-13-8-13-8 12-7 11 21 6 22 6-3 16-3 16-23 3-22 3-6-15zm36-6c0-5-4-10-10-10-5 0-10 5-10 10 0 6 5 10 10 10 6 0 10-4 10-10zm43-66v-26l8 13c11 18 11 39 0 39h-8v-26zm-973-93c0-5 7-11 15-15l15-5v-91h20v100h10c6 0 10 5 10 10v10h-70v-9zm282-7-10-19 7-40 6-40 16-3 15-3-2 51-1 51-11 11-10 10-10-18zm168 1v-15h-29l-12-21-11-22 10-22 10-22h52v117h-10c-5 0-10-7-10-15zm0-54c0-11-4-23-10-26l-10-6v51h20v-19zm77 63c-4-4-7-15-7-25v-19l25-16 25-16-6-10-6-10-11 11c-15 15-27 14-27-3v-15l19-6c10-3 26-3 35 1l16 6v47l-20 11c-11 6-20 15-20 21v10l21-6 21-7-4 13-5 14-24 3c-14 2-28 0-32-4zm273-4c0-5 7-10 15-10s15 5 15 10c0 6-7 10-15 10s-15-4-15-10zm-720-66v-45l10 6c6 3 10 17 10 30s5 27 10 30c6 3 10 10 10 16v9h-40v-46zm52 4 3-43 28-2 27-2v89h-20v-59l-10-6-10-6v71h-21l3-42zm85 35c-4-3-7-15-7-25v-18h15c8 0 15-5 15-11v-10l-22 7-23 7 14-17c17-20 35-20 52 0l13 16-23 19-23 19h33l-6 10c-7 11-28 13-38 3zm120 1c-4-4-7-22-7-40v-32l15-6c18-7 45 3 45 16v9l-20-6-20-6v21h41l-3 23-3 22-20 3c-12 2-24 0-28-4zm273-14-11-21 6-18c3-11 13-22 22-25l17-7 15 17 16 16-22-7-23-6v21h41l-3 23-3 22-22 3-22 3-11-21zm74 6c-3-8-4-27-2-42l3-27 13-5 12-4v58l12 12 12 12 11-36 10-35h20l12 38 11 38 1-37 1-38h30v80h-51l-9-22-9-23v23l-1 22h-71l-5-14zm168 2c-6-6-12-22-12-34v-22l14-11 13-11 17 6 16 6v30l-15-12-15-12-6 15c-3 9-3 21 0 26l7 10 16-6 16-6-5 14c-6 19-30 23-46 7zm75 6c-4-4-7-22-7-40v-32l15-6c18-7 45 3 45 16v9l-20-6-20-6v21h41l-3 23-3 22-20 3c-12 2-24 0-28-4zm73-80v-25l10 6c6 3 10 15 10 26v19h-20v-26zm-930-144v-60h11c6 0 13 9 16 20s9 20 13 20c11 0 40 29 40 40 0 5-7 16-16 24l-15 16h-49v-60zm50 19c0-5-4-9-10-9-5 0-10 7-10 16v15l10-6c6-3 10-10 10-16zm462 24-9-18 5-42 4-43h18v68l13 5 12 5-15 11-15 11h13c6 0 12 5 12 10 0 6-7 10-15 10h-14l-9-17zm78-43v-60h20l1 38c1 38 3 37 13-10 9-39 22-35 34 10l10 37 1-37 1-38h20v120h-29l-9-32-8-33-12 33-11 32h-31v-60zm128 53c-3-5-4-30-4-57l1-49 13-5 13-4-3 57c-3 53-11 76-20 58zm162-6v-12l-22-10-23-10-3-23-4-23 11-13 11-13h50v117h-10c-5 0-10-6-10-13zm-4-74-7-17-9 13-8 14 5 14 6 14 10-10 10-10-7-18zm-784 45c-26-26-7-78 29-78h17l6 16 6 15-20-6-20-6v21h40v13c0 16-20 37-35 37-6 0-16-5-23-12zm38-12c0-3-4-8-10-11l-10-6v10c0 6 5 11 10 11 6 0 10-2 10-4zm39 7-14-16 23 5 22 6v-8c0-4-9-10-21-13l-21-6 4-18 3-18 33-2 32-1v64l-12 12c-17 17-33 15-49-5zm81 3-12-15 4-22 3-22 17-11 18-11 17 18 18 19-25-4-25-3v40l25-3 24-4-13 16c-17 20-35 20-51 2zm84 6c-17-11-22-35-13-60l9-23 22 3 21 3 5 14 4 13-21-7-21-6v21h40v38l-16 6c-19 7-17 7-30-2zm26-22c0-5-4-10-10-10-5 0-10 5-10 10 0 6 5 10 10 10 6 0 10-4 10-10zm69 9-11-22 11-24 11-24 23 3 22 3 3 34 3 34-13 8c-22 14-37 10-49-12zm41-24v-25h-20v50h20v-25zm283 29c-2-7-3-25-1-40l3-27 13-5 12-4v73l10-6 10-6v-59h21l-3 43-3 42h-29l-28 1-5-12z"/>
    </g>
    <g fill="#062f88" transform="matrix(.1 0 0 -.1 0 300)">
      <path d="M0 2978v-18h20v-90H0V0h490v1490h-40v42l20-5 20-5v1480l-245-4-245-3v-17zm354-77c3-35 3-68 0-72l-5-9H210v68c0 38 2 71 5 74s34 5 69 5l64-2 6-64zm124-134 3-17h-41v13c0 31 32 34 38 4zm-288-192v-75H50v150h140v-75zm170 0v-75H210v150h150v-75zm115-120v-40l-37-3-38-3v92l38-3 37-3v-40zm-275-5v-40h-80v80h80v-40zm190-81v-20l-17 3-18 3-3 18-3 17h41v-21zm-140-4v-15h-40v30h40v-15zm110-340v-75H210v150h150v-75zm100-275v-40h-80v80h80v-40zm-80-70v-20h-14c-15 0-28 24-19 34 4 3 12 6 20 6h13v-20zm338 1313c23-2 59-2 80 0l37 4H675l43-4zm165 0c20-2 54-2 75 0l37 4H845l38-4zm300 0c15-2 37-2 50 0l22 4h-100l28-4zm-673-93v-70h150v140H510v-70zm340 0v-70h140v140H850v-70zm160 0v-70h140v140h-140v-70zm-330-160v-70h150v140H680v-70zm-170-165v-75h140v150H510v-75zm340 35v-40h80v80h-80v-40zm100 25v-15h30v30h-30v-15zm-270-225v-71l73 3 72 3 3 68 3 67H680v-70zm916-45-19-25h-21c-12 0-32-7-44-16l-22-15v-78l25-19 25-20v-34l19-5 19-5 11-24 11-24h36l14 22c8 12 27 33 43 47 15 14 27 30 27 35s11 19 25 32l25 23v52l-25 24-24 25h-49l-6 15-5 15h-46l-19-25zm-916-115v-70h150v140H680v-70zm245-296c-55-119-101-220-103-225l-4-9h387l94 200c52 110 96 198 99 195 3-2 46-91 96-197l92-193 64-3 65-3 36 10c20 6 49 21 64 33l28 21 18 41 19 41v91l-22 44-23 44-26 19-26 18-41 6c-22 3-56 3-75-1l-34-6-38-33-38-33 7-13 8-12 34 31 35 30h84l31-19 31-19 16-34c9-19 19-53 23-75l6-41-12-36-11-36-26-20-26-20h-36c-20 0-43 5-51 10l-15 9-3 111-4 110h-58l-1-67-1-68-76 158-76 157h-411l-100-216zm-415 116v-40h80v80h-80v-40zm110-65v-15h30v30h-30v-15zm803-102-13-5v-38h40v25c0 25-4 28-27 18zm-83-23v-20h40v40h-40v-20zm1175 11-5-10 10-6 10-6v15c0 18-6 21-15 7zm-87-34c-10-22-10-89-2-111l6-16h18c11 0 21 4 24 9l6 9-18-2-17-1-5 65-5 65-7-18zm-489-31 23-24-4-28-3-29h-50l-9 28-10 28 13 21 13 20-14-4c-7-3-17-16-22-31l-10-26 12-26 12-25h56l12 12 12 12v65l-16 15c-8 9-20 16-26 16h-11l22-24zm69 7 12-5v-86l-12-5-13-5h60l-12 5-13 5v98l-17-1-18-1 13-5zm60-3 22-9v-79l-12-5-13-5h60l-12 5-13 5v98l-27-1h-28l23-9zm70 0 22-9v-79l-12-5-13-5 30-1 29-1-12 12-12 12v86l-27-1h-28l23-9zm80-15-12-26 10-27 9-27 30-3 30-3-25 14-25 13v42c0 23-1 42-3 42-1 0-8-11-14-25zm56 7 7-20-18-5-18-5 23-1 22-1v19c0 11-5 23-11 27l-11 7 6-21zm49 2-6-16 37-34 36-33v28l-31 21-30 22 5 14c3 8 3 14 0 14-2 0-7-7-11-16zm43 1c4-8 8-15 10-15s4 7 4 15-4 15-10 15h-9l5-15zm142 8 12-5v-29c0-17-5-39-10-50l-11-19 28 1 28 1-12 5-13 5v98l-17-1-18-1 13-5zm127-3c3-5 8-10 11-10 2 0 4 5 4 10 0 6-5 10-11 10h-10l6-10zm-1295-20v-20h40v40h-40v-20zm70 0v-20h40v40h-40v-20zm1170 1c-14-27-13-47 6-65l15-16 27 1 27 2-23 4-22 4-11 21-11 20 5 24c5 29 1 31-13 5zm-2020-36c0-8 5-15 10-15 6 0 10 7 10 15s-4 15-10 15c-5 0-10-7-10-15zm1760-30v-15h32l-12 15c-7 8-14 15-16 15s-4-7-4-15zm-1800-20v-15h30v30h-30v-15zm290-240v-185h400v370H810v-185zm780 85v-100l338 1c185 1 329 3 320 6l-18 4v29l25-6 25-6v21l-14-5-13-5-17 16-16 16v23c0 12 5 27 12 34l12 12h76v-109l-22-15-22-16h94v190l-157-1c-87-1-148-4-135-6l22-4v-29h-15c-8 0-15 4-15 10v9l-15-5c-8-4-13-9-11-13 3-4 2-29-2-57l-7-49h-30l-7 50-7 50 15 22 14 23h-31l6-10 6-10-14-6-15-5 5-20 5-19h-22v-79l-14 5-14 5-5 42-4 42 12 27c7 15 11 29 8 32-3 2-83 5-179 6l-174 1v-101zm129 81 14-9-6-10-7-9-26 5-27 5 5-14 5-14 21-3 22-3 10-20 11-19-11-21-11-20-40 3-39 3-3 10-2 10 33 3 32 3v9c0 5-11 12-25 16l-26 6-9 19-10 19 20 20c21 21 46 25 69 11zm71-25c0-8 6-17 13-20l12-6-12-6-13-6v-18c0-10 5-22 10-25 6-3 10-10 10-16v-9h-40l-5 23c-6 27-9 56-7 80l2 17h30v-14zm114-32c3-9 6-29 6-45v-30l-42 3-43 3 2 20c1 16 7 46 12 63 1 1 14 2 30 2h29l6-16zm196-35v-51l-12 4-13 5-3 46-3 47h31v-51zm104 35c3-9 6-31 6-50v-34h-29l-3 38-3 37h-20l-3-37-3-37-15 6-14 5v88h78l6-16zm-354-44c0-5 7-10 15-10s15 5 15 10c0 6-7 10-15 10s-15-4-15-10zm402 13 3-18h30v30l-18 3-19 4 4-19zm-662-187v-75l10-6 11-7 42 8 42 7-20 7c-12 4-27 15-34 24l-13 15 4 51 3 50h-45v-74zm70 35c0-22 3-46 6-55l6-16h46l6 16c3 9 6 33 6 55v39h-70v-39zm100-14v-54l-17-15c-10-9-25-18-33-21l-15-5 43-1 42-1v150h-20v-53zm118 41c5-7 13-36 17-65l7-51-19-11-18-10 38-1h37v150h-72l10-12zm-68-32v-16h52l-4 13c-3 6-14 13-26 15l-22 3v-15zm0-61v-15h60v30h-60v-15zm-717-82c186-2 488-2 670 0 183 1 31 2-338 2-368 0-518-1-332-2zm1035 0c17-2 47-2 65 0l32 4h-130l33-4zm205 0c59-2 155-2 215 0 59 1 10 3-108 3s-167-2-107-3zM1237 963c-4-3-7-23-7-43v-36l25-22c14-12 31-22 38-22h12l-15 10-15 9 13 13 12 12v62l-12 12c-13 13-41 16-51 5zm41-43 3-33-9-9-10-10-11 21-11 21 6 25 6 26 12-4 11-4 3-33zm202-5v-55h20v110h-20v-55zm230 0v-55h20v37l25 11 25 12v13c0 20-21 37-47 37h-23v-55zm48 22 3-17h-31v42l13-4c6-3 13-12 15-21zm272-22v-55h20v110h-20v-55zm-461 36c-3-7-3-30-1-52l4-39h28l-11 19-12 18 6 17c10 26 25 19 37-19l12-36-12-14-12-15h20l17 51c9 28 15 52 12 55-2 3-8-8-12-23l-8-28-6 25-7 25-19 4c-11 2-23 8-26 13l-7 10-3-11zm-247-48 3-36 10-4 11-3-4 40-4 40h-19l3-37zm38-3v-40h20v80h-20v-40zm50 31v-10l14 5 14 5v-52l11-12 12-12-3 40-3 40-22 3-23 3v-10zm123-31v-45l4 23c2 12 2 32 0 45l-4 22v-45zm268 26-13-15 4-17c2-9 11-22 20-28l17-11 13 14 13 13-22-7-23-6v31h41l-3 17-3 18-16 3-16 3-12-15zm39-6c0-5-7-10-15-10s-15 5-15 10c0 6 7 10 15 10s15-4 15-10zm35 1-6-21 6-21 7-20 21 3 22 3v70l-22 3-21 3-7-20zm35-21v-30h-20v60h20v-30zm40-14v-56h10c6 0 10 6 10 14v14l21 5 20 5-3 33-3 32-11 4-10 3 4-35 4-35h-22v59l-10 6-10 6v-55zm125 34-6-20 6-20 6-20h19c10 0 22 5 26 11l7 11-22-7-21-6v31h42l-6 16c-3 9-6 18-6 20s-9 4-19 4h-20l-6-20zm40 0 6-10h-15c-9 0-16 5-16 10 0 6 4 10 9 10 6 0 13-4 16-10zm-709-29-8-13 11-11c14-14 20-6 11 17l-7 20-7-13zm744-21c0-5 5-10 10-10 6 0 10 5 10 10 0 6-4 10-10 10-5 0-10-4-10-10zm-439-113-11-14 6-16c3-9 14-19 25-22l19-6v-31l-27 7-28 6 11-11 12-12 23 4 24 3 3 21 3 20-26 12c-14 6-25 17-25 23v11l21-5 20-5-4 11c-2 7-10 13-19 15l-15 3-12-14zm-513-4 12-5v-88h20v88l13 5 12 5h-70l13-5zm262-27c0-19 3-41 6-50l6-16h33l-14 9-14 9 6 28c6 31 0 54-14 54h-9v-34zm170-16v-50h20v100h-20v-50zm-345 21-6-11-10 5-9 6v-71h8c4 0 9 12 10 27l2 27 12 7c7 5 10 11 6 14-3 4-9 1-13-4zm108-7-6-17 24-19 24-20-22 5-23 5v-18h50v39l-20 6-20 6 5 9 6 9 16-6 16-6-7 11c-4 7-14 12-22 12h-15l-6-16zm127 2-12-15 4-23 3-23 19-3 18-4 11 11 10 10-22-6-21-5v64l13-5c6-2 11-10 10-16-2-6 2-11 7-11 14 0 13 13-2 28-16 16-23 15-38-2zm82 5-14-8 4-28 3-28 13-5 14-4-11 21-12 21 11 20c12 22 11 23-8 11zm200 0-14-8 4-29 3-29 19-3 18-4 11 11 12 12-25-3-24-3v49l12 4 12 4v-16c0-9 5-16 10-16 14 0 13 13-2 28-14 14-19 15-36 3zm241 2-13-5v-68h19c11 0 22 4 25 9l6 9-20-5-20-5v24c0 14 3 28 7 31l6 7 14-11 13-11v10c0 12-21 21-37 15zm67-7-12-15 4-23 3-23 19-3 18-4 12 12 11 12-22-7-23-6v61h10c6 0 10-7 10-15s5-15 10-15c14 0 13 13-2 28-16 16-23 15-38-2zm-800-31v-35h26l-4 35-4 35h-18v-35zm40 0v-35h20v70h-20v-35zm520-2v-33h20v58l13 5 12 5-22-1-23-1v-33zm56 10c4-15 10-32 14-36l8-9 4 9c3 4 8 22 12 38l6 30-15-25-14-25-1 17c0 9-5 20-10 23l-11 7 7-29zm67-8v-40l4 23c2 12 2 30 0 40l-5 17 1-40zm187-24c0-6 5-13 10-16l10-6v15c0 9-4 16-10 16-5 0-10-4-10-9zm-409-115-12-15 9-43 10-43 2 30c1 17 3 42 5 58 4 31 2 33-14 13zm-521-45v-51h20v39l23 3 22 3v50l-32 3-33 3v-50zm50 19v-20h-30v40h30v-20zm542-22 1-53 4 35c3 19 8 39 12 43l8 8 7-40 6-41h10c6 0 10 6 10 13 0 6 3 23 5 37l5 25-9-20-9-20-6 18c-3 9-8 24-11 32l-4 15h-31l2-52zm68 42c0-5 4-10 9-10h10l4-42 4-43 1 53 2 52h-15c-8 0-15-4-15-10zm219-2c0-7-1-30-2-51l-2-37h15v50c0 28-2 50-5 50s-5-6-6-12zm-782-25c-4-3-7-19-7-34v-27l13-5c16-6 37 3 37 15v10l-13-11-14-11-6 7c-13 12-7 23 13 23h20v40h-19l5-15 6-15h-34l6 15c6 16 3 19-7 8zm73-4v-10l10 6c6 3 10 8 10 11 0 2-4 4-10 4-5 0-10-5-10-11zm36-4 6-15h-15c-8 0-20-6-26-14l-11-13 16-14 17-14-7 23-7 22h33l-6-15-5-15h19v70h-19l5-15zm43-2c-2-30 2-48 14-55s37 1 37 12v8l-20-5-20-5v54l20-5 20-5v18h-50l-1-17zm78 11c-4-4-7-17-7-29v-23l16-12 15-13 17 16 16 17h-12c-7 0-12-4-12-10 0-5-4-10-10-10-5 0-10 7-10 15v15h41l-3 18-3 17-21 3c-11 2-23 0-27-4zm33-14c0-5-4-10-10-10-5 0-10 5-10 10 0 6 5 10 10 10 6 0 10-4 10-10zm77 14c-4-4-7-17-7-29v-23l15-12 15-12 16 12 15 13-3 26-3 26-20 3c-12 2-24 0-28-4zm33-28c0-14-4-28-10-31l-10-6v61h20v-24zm253-1v-40l4 23c2 12 2 30 0 40l-5 17 1-40zm39-2 1-38 4 33 4 32h28l4-32 4-33 1 38 2 37h-50l2-37zm78 2c0-19 3-35 8-35 4 0 7 16 7 35s-3 35-7 35c-5 0-8-16-8-35z"/>
    </g>
  </g>
</svg>